<svg width="30" height="31" viewBox="0 0 30 31" fill="none" xmlns="http://www.w3.org/2000/svg">
<circle cx="15" cy="15.9158" r="15" fill="#4C5EFF"/>
<path d="M21.75 11.2798C21.75 10.1568 20.7591 9.16583 19.636 9.16583H11.114C9.99093 9.16583 9 10.1568 9 11.2798V19.8018C9 20.9249 9.99093 21.9158 11.114 21.9158H15.408V17.0933H13.8225V14.9793H15.408V14.1205C15.408 12.6671 16.465 11.4119 17.7863 11.4119H19.5039V13.5259H17.7863C17.5881 13.5259 17.3899 13.7241 17.3899 14.1205V14.9793H19.5039V17.0933H17.3899V21.9158H19.636C20.7591 21.9158 21.75 20.9249 21.75 19.8018V11.2798Z" fill="white"/>
</svg>
