<svg width="30" height="31" viewBox="0 0 30 31" fill="none" xmlns="http://www.w3.org/2000/svg">
<circle cx="15" cy="15.9158" r="15" fill="#4C5EFF"/>
<path d="M19.9356 9.91583H10.8144C9.78461 9.91583 9 10.7004 9 11.7303V20.8514C9 21.8812 9.78461 22.6658 10.8144 22.6658H19.9356C20.9654 22.6658 21.75 21.8812 21.75 20.8514V11.7303C21.75 10.7004 20.9654 9.91583 19.9356 9.91583ZM15.375 20.1158C17.4837 20.1158 19.2 18.4485 19.2 16.4379C19.2 16.0947 19.151 15.7024 19.0529 15.4081H20.1317V20.6062C20.1317 20.8514 19.9356 21.0966 19.6413 21.0966H11.1087C10.8635 21.0966 10.6183 20.9004 10.6183 20.6062V15.3591H11.7462C11.6481 15.7024 11.599 16.0456 11.599 16.3889C11.55 18.4485 13.2663 20.1158 15.375 20.1158ZM15.375 18.6447C14.0019 18.6447 12.9231 17.5658 12.9231 16.2418C12.9231 14.9178 14.0019 13.8389 15.375 13.8389C16.7481 13.8389 17.8269 14.9178 17.8269 16.2418C17.8269 17.6149 16.7481 18.6447 15.375 18.6447ZM20.0827 13.3976C20.0827 13.6918 19.8375 13.937 19.5433 13.937H18.1702C17.876 13.937 17.6308 13.6918 17.6308 13.3976V12.0735C17.6308 11.7793 17.876 11.5341 18.1702 11.5341H19.5433C19.8375 11.5341 20.0827 11.7793 20.0827 12.0735V13.3976Z" fill="white"/>
</svg>
