<svg width="105" height="38" viewBox="0 0 105 38" fill="none" xmlns="http://www.w3.org/2000/svg">
<g filter="url(#filter0_d_5_27)">
<path d="M4.60001 8.31583C4.60001 10.7458 5.20001 10.7158 7.30001 10.7158H10.3C12.67 10.7158 12.7 10.7458 12.7 13.1158C12.7 16.0858 10.3 14.9458 10.3 17.9158V25.1158C10.3 29.3158 10.33 29.9158 13.9 29.9158C17.5 29.9158 17.5 29.3158 17.5 25.1158V13.1158C17.5 10.7458 17.5 10.7158 20.2 10.7158C22.3 10.7158 22.9 10.7458 22.9 8.31583C22.9 5.94583 22.3 5.91583 20.2 5.91583H7.30001C5.20001 5.91583 4.60001 5.94583 4.60001 8.31583Z" fill="white"/>
<path d="M25.3117 25.1158C25.3117 29.5858 25.3117 29.9158 28.9117 29.9158C32.2117 29.9158 32.2117 29.5858 32.2117 26.3158V25.5958C32.2117 22.3858 32.2117 22.1158 35.8117 22.1158C39.4117 22.1158 39.4117 22.3858 39.4117 25.5958V26.3158C39.4117 29.5858 39.4117 29.9158 42.7117 29.9158C46.3117 29.9158 46.3117 29.5858 46.3117 25.1158V18.5158C46.3117 15.5158 43.9117 16.1158 43.9117 13.1158C43.9117 6.51583 43.3117 5.91583 36.7117 5.91583H34.9117C28.3117 5.91583 27.7117 6.51583 27.7117 13.1158C27.7117 16.1158 25.3117 15.5158 25.3117 18.5158V25.1158ZM32.2117 14.0158C32.2117 10.4158 32.2117 10.4158 35.8117 10.4158C39.4117 10.4158 39.4117 10.4158 39.4117 14.0158C39.4117 17.6158 39.4117 17.6158 35.8117 17.6158C32.2117 17.6158 32.2117 17.6158 32.2117 14.0158Z" fill="white"/>
<path d="M50.5211 25.1158C50.5211 29.9158 50.5211 29.9158 55.3211 29.9158C60.1211 29.9158 60.1211 29.9158 60.1211 26.3158C60.1211 22.7158 60.1511 22.7158 63.6611 22.7158C67.8911 22.7158 68.5211 22.1158 68.5211 15.5158V13.1158C68.5211 6.51583 67.9211 5.91583 61.3211 5.91583H55.3211C50.5211 5.91583 50.5211 6.09583 50.5211 10.7158V25.1158ZM55.3211 13.1158C55.3211 11.0158 55.6211 10.7158 57.7211 10.7158H60.1211C63.7211 10.7158 63.7211 10.7158 63.7211 14.3158C63.7211 17.9158 63.7211 17.9158 60.1211 17.9158H57.7211C55.6211 17.9158 55.3211 17.6158 55.3211 15.5158V13.1158Z" fill="white"/>
<path d="M83.9245 6.43074C83.9955 6.57528 84.0424 6.73006 84.0634 6.88918L84.4516 12.6612L84.6443 15.5623C84.6463 15.8607 84.6931 16.1571 84.7832 16.442C85.016 16.9949 85.5759 17.3462 86.185 17.3217L95.4668 16.7146C95.8687 16.708 96.2568 16.8583 96.5458 17.1325C96.7866 17.361 96.942 17.6599 96.991 17.9814L97.0074 18.1767C96.6233 23.4952 92.7171 27.9314 87.4095 29.0765C82.102 30.2216 76.6593 27.8026 74.0366 23.1327C73.2804 21.7761 72.8082 20.2848 72.6475 18.7466C72.5803 18.2913 72.5508 17.8313 72.5591 17.3713C72.5508 11.6692 76.6114 6.73947 82.2955 5.55104C82.9796 5.44451 83.6502 5.80667 83.9245 6.43074Z" fill="#4C5EFF"/>
<path opacity="0.4" d="M87.713 1.47465C94.0705 1.63639 99.4138 6.20802 100.442 12.3656L100.432 12.4111L100.404 12.4772L100.408 12.6585C100.394 12.8988 100.301 13.13 100.141 13.3168C99.9746 13.5113 99.747 13.6438 99.4965 13.6952L99.3437 13.7162L88.6349 14.41C88.2787 14.4452 87.924 14.3303 87.6591 14.094C87.4383 13.8971 87.2972 13.6313 87.2574 13.3449L86.5386 2.65172C86.5261 2.61557 86.5261 2.57637 86.5386 2.54021C86.5484 2.24546 86.6781 1.96685 86.8988 1.76662C87.1195 1.56639 87.4127 1.46124 87.713 1.47465Z" fill="#4C5EFF"/>
</g>
<defs>
<filter id="filter0_d_5_27" x="0.600006" y="0.915833" width="104.4" height="37" filterUnits="userSpaceOnUse" color-interpolation-filters="sRGB">
<feFlood flood-opacity="0" result="BackgroundImageFix"/>
<feColorMatrix in="SourceAlpha" type="matrix" values="0 0 0 0 0 0 0 0 0 0 0 0 0 0 0 0 0 0 127 0" result="hardAlpha"/>
<feOffset dy="4"/>
<feGaussianBlur stdDeviation="2"/>
<feComposite in2="hardAlpha" operator="out"/>
<feColorMatrix type="matrix" values="0 0 0 0 0 0 0 0 0 0 0 0 0 0 0 0 0 0 0.25 0"/>
<feBlend mode="normal" in2="BackgroundImageFix" result="effect1_dropShadow_5_27"/>
<feBlend mode="normal" in="SourceGraphic" in2="effect1_dropShadow_5_27" result="shape"/>
</filter>
</defs>
</svg>
