<svg width="40" height="41" viewBox="0 0 40 41" fill="none" xmlns="http://www.w3.org/2000/svg">
<rect y="0.915833" width="40" height="40" rx="20" fill="url(#paint0_linear_120_896)"/>
<path d="M19.9968 24.0904C15.6838 24.0904 11.9998 24.7704 11.9998 27.4904C11.9998 30.2114 15.6608 30.9154 19.9968 30.9154C24.3098 30.9154 27.9938 30.2364 27.9938 27.5154C27.9938 24.7944 24.3338 24.0904 19.9968 24.0904Z" fill="white"/>
<path opacity="0.4" d="M19.9967 21.4995C22.9347 21.4995 25.2887 19.1445 25.2887 16.2075C25.2887 13.2705 22.9347 10.9155 19.9967 10.9155C17.0597 10.9155 14.7047 13.2705 14.7047 16.2075C14.7047 19.1445 17.0597 21.4995 19.9967 21.4995Z" fill="white"/>
<defs>
<linearGradient id="paint0_linear_120_896" x1="0" y1="0.915833" x2="40" y2="40.9158" gradientUnits="userSpaceOnUse">
<stop stop-color="#6DF7A3"/>
<stop offset="1" stop-color="#2137FF"/>
</linearGradient>
</defs>
</svg>
