<svg width="30" height="31" viewBox="0 0 30 31" fill="none" xmlns="http://www.w3.org/2000/svg">
<circle cx="15" cy="15.9158" r="15" fill="#4C5EFF"/>
<path d="M20.9451 9.96271C19.4634 8.48614 17.4878 7.66583 15.4024 7.66583C11.0671 7.66583 7.55488 11.1658 7.55488 15.4861C7.55488 16.8533 7.93902 18.2205 8.59756 19.369L7.5 23.4158L11.6707 22.3221C12.8232 22.9236 14.0854 23.2518 15.4024 23.2518C19.7378 23.2518 23.25 19.7518 23.25 15.4315C23.1951 13.408 22.4268 11.4393 20.9451 9.96271ZM19.189 18.2752C19.0244 18.7127 18.2561 19.1502 17.872 19.2049C17.5427 19.2596 17.1037 19.2596 16.6646 19.1502C16.3902 19.0408 16.0061 18.9315 15.5671 18.7127C13.5915 17.8924 12.3293 15.9236 12.2195 15.7596C12.1098 15.6502 11.3963 14.7205 11.3963 13.7361C11.3963 12.7518 11.8902 12.3143 12.0549 12.0955C12.2195 11.8768 12.439 11.8768 12.6037 11.8768C12.7134 11.8768 12.878 11.8768 12.9878 11.8768C13.0976 11.8768 13.2622 11.8221 13.4268 12.2049C13.5915 12.5877 13.9756 13.5721 14.0305 13.6268C14.0854 13.7361 14.0854 13.8455 14.0305 13.9549C13.9756 14.0643 13.9207 14.1736 13.811 14.283C13.7012 14.3924 13.5915 14.5565 13.5366 14.6111C13.4268 14.7205 13.3171 14.8299 13.4268 14.994C13.5366 15.2127 13.9207 15.8143 14.5244 16.3611C15.2927 17.0174 15.8963 17.2361 16.1159 17.3455C16.3354 17.4549 16.4451 17.4002 16.5549 17.2908C16.6646 17.1815 17.0488 16.744 17.1585 16.5252C17.2683 16.3065 17.4329 16.3611 17.5976 16.4158C17.7622 16.4705 18.75 16.9627 18.9146 17.0721C19.1341 17.1815 19.2439 17.2361 19.2988 17.2908C19.3537 17.4549 19.3537 17.8377 19.189 18.2752Z" fill="white"/>
</svg>
