<svg width="30" height="31" viewBox="0 0 30 31" fill="none" xmlns="http://www.w3.org/2000/svg">
<circle cx="15" cy="15.9158" r="15" fill="#4C5EFF"/>
<path d="M21.5348 15.1007C21.5348 14.8098 21.4864 14.4704 21.4864 14.0825C21.4379 13.6946 21.3894 13.3067 21.3409 12.9673C21.2439 12.5795 21.0985 12.2886 20.8076 12.0461C20.5652 11.8037 20.2258 11.6583 19.8864 11.6098C18.7712 11.4643 17.1227 11.4158 14.8924 11.4158C12.6621 11.4158 10.9651 11.4643 9.89848 11.6098C9.55909 11.6583 9.2197 11.8037 8.97727 12.0461C8.73485 12.2886 8.54091 12.5795 8.44394 12.9673C8.34697 13.3067 8.29849 13.6461 8.29849 14.0825C8.25 14.4704 8.25 14.8098 8.25 15.1007C8.25 15.3916 8.25 15.731 8.25 16.2158C8.25 16.7007 8.25 17.0886 8.25 17.331C8.25 17.6219 8.29849 17.9613 8.29849 18.3492C8.34697 18.737 8.39545 19.1249 8.44394 19.4643C8.54091 19.8522 8.68636 20.1431 8.97727 20.3855C9.2197 20.628 9.55909 20.7734 9.89848 20.8219C11.0136 20.9673 12.6621 21.0158 14.8924 21.0158C17.1227 21.0158 18.8197 20.9673 19.8864 20.8219C20.2258 20.7734 20.5652 20.628 20.8076 20.3855C21.05 20.1431 21.2439 19.8522 21.3409 19.4643C21.4379 19.1249 21.4864 18.7855 21.4864 18.3492C21.5349 17.9613 21.5348 17.6219 21.5348 17.331C21.5348 17.0401 21.5348 16.7007 21.5348 16.2158C21.5348 15.731 21.5348 15.3431 21.5348 15.1007ZM17.4621 16.6037L13.6318 18.9795C13.5833 19.0279 13.4864 19.0764 13.3894 19.0764C13.2924 19.0764 13.2439 19.0764 13.147 19.028C13.0015 18.931 12.9045 18.7855 12.9045 18.5916V13.7916C12.9045 13.5976 13.0015 13.4522 13.147 13.3552C13.2924 13.2583 13.4864 13.2583 13.6318 13.3552L17.4621 15.731C17.6076 15.828 17.7045 15.9734 17.7045 16.1189C17.7045 16.2643 17.6076 16.5067 17.4621 16.6037Z" fill="white"/>
</svg>
